<?xml version="1.0" encoding="UTF-8" standalone="no"?>
<!DOCTYPE svg PUBLIC "-//W3C//DTD SVG 1.1//EN"
 "http://www.w3.org/Graphics/SVG/1.1/DTD/svg11.dtd">
<!-- Generated by graphviz version 2.34.0 (20130907.0228)
 -->
<!-- Title: %3 Pages: 1 -->
<svg width="708pt" height="268pt"
 viewBox="0.00 0.00 708.00 268.00" xmlns="http://www.w3.org/2000/svg" xmlns:xlink="http://www.w3.org/1999/xlink">
<g id="graph0" class="graph" transform="scale(1 1) rotate(0) translate(4 264)">
<title>%3</title>
<polygon fill="white" stroke="white" points="-4,4 -4,-264 704,-264 704,4 -4,4"/>
<!-- org_liveSense_framework_fitnesse -->
<g id="node1" class="node"><title>org_liveSense_framework_fitnesse</title>
<polygon fill="yellow" stroke="black" points="298.5,-223 298.5,-259 489.5,-259 489.5,-223 298.5,-223"/>
<text text-anchor="middle" x="394" y="-248.1" font-family="Arial" font-size="8.00">liveSense :: Framework :: fitnesse</text>
<polyline fill="none" stroke="black" points="298.5,-241 489.5,-241 "/>
<text text-anchor="middle" x="394" y="-230.1" font-family="Arial" font-size="8.00">org.liveSense.framework.fitnesse(2&#45;SNAPSHOT)</text>
</g>
<!-- org_ops4j_pax_logging_pax_logging_api -->
<g id="node2" class="node"><title>org_ops4j_pax_logging_pax_logging_api</title>
<polygon fill="green" stroke="black" points="87.5,-149 87.5,-185 260.5,-185 260.5,-149 87.5,-149"/>
<text text-anchor="middle" x="174" y="-174.1" font-family="Arial" font-size="8.00">OPS4J Pax Logging &#45; API</text>
<polyline fill="none" stroke="black" points="87.5,-167 260.5,-167 "/>
<text text-anchor="middle" x="174" y="-156.1" font-family="Arial" font-size="8.00">org.ops4j.pax.logging.pax&#45;logging&#45;api(1.7.0)</text>
</g>
<!-- org_liveSense_framework_fitnesse&#45;&gt;org_ops4j_pax_logging_pax_logging_api -->
<g id="edge1" class="edge"><title>org_liveSense_framework_fitnesse&#45;&gt;org_ops4j_pax_logging_pax_logging_api</title>
<path fill="none" stroke="yellow" d="M341.863,-222.937C310.06,-212.529 269.235,-199.168 235.81,-188.229"/>
<polygon fill="yellow" stroke="yellow" points="236.736,-184.849 226.143,-185.065 234.559,-191.502 236.736,-184.849"/>
</g>
<!-- org_apache_geronimo_specs_geronimo_servlet_3_0_spec -->
<g id="node3" class="node"><title>org_apache_geronimo_specs_geronimo_servlet_3_0_spec</title>
<polygon fill="green" stroke="black" points="279,-149 279,-185 509,-185 509,-149 279,-149"/>
<text text-anchor="middle" x="394" y="-174.1" font-family="Arial" font-size="8.00">Servlet 3.0</text>
<polyline fill="none" stroke="black" points="279,-167 509,-167 "/>
<text text-anchor="middle" x="394" y="-156.1" font-family="Arial" font-size="8.00">org.apache.geronimo.specs.geronimo&#45;servlet_3.0_spec(1.0)</text>
</g>
<!-- org_liveSense_framework_fitnesse&#45;&gt;org_apache_geronimo_specs_geronimo_servlet_3_0_spec -->
<g id="edge2" class="edge"><title>org_liveSense_framework_fitnesse&#45;&gt;org_apache_geronimo_specs_geronimo_servlet_3_0_spec</title>
<path fill="none" stroke="yellow" d="M394,-222.937C394,-214.807 394,-204.876 394,-195.705"/>
<polygon fill="yellow" stroke="yellow" points="397.5,-195.441 394,-185.441 390.5,-195.441 397.5,-195.441"/>
</g>
<!-- org_apache_servicemix_bundles_junit -->
<g id="node4" class="node"><title>org_apache_servicemix_bundles_junit</title>
<polygon fill="green" stroke="black" points="527.5,-149 527.5,-185 700.5,-185 700.5,-149 527.5,-149"/>
<text text-anchor="middle" x="614" y="-174.1" font-family="Arial" font-size="8.00">Apache ServiceMix :: Bundles :: junit</text>
<polyline fill="none" stroke="black" points="527.5,-167 700.5,-167 "/>
<text text-anchor="middle" x="614" y="-156.1" font-family="Arial" font-size="8.00">org.apache.servicemix.bundles.junit(3.8.2.4)</text>
</g>
<!-- org_liveSense_framework_fitnesse&#45;&gt;org_apache_servicemix_bundles_junit -->
<g id="edge3" class="edge"><title>org_liveSense_framework_fitnesse&#45;&gt;org_apache_servicemix_bundles_junit</title>
<path fill="none" stroke="yellow" d="M446.137,-222.937C477.94,-212.529 518.765,-199.168 552.19,-188.229"/>
<polygon fill="yellow" stroke="yellow" points="553.441,-191.502 561.857,-185.065 551.264,-184.849 553.441,-191.502"/>
</g>
<!-- org_apache_felix_eventadmin -->
<g id="node5" class="node"><title>org_apache_felix_eventadmin</title>
<polygon fill="#3182bd" stroke="black" points="104,-75 104,-111 244,-111 244,-75 104,-75"/>
<text text-anchor="middle" x="174" y="-100.1" font-family="Arial" font-size="8.00">Apache Felix EventAdmin</text>
<polyline fill="none" stroke="black" points="104,-93 244,-93 "/>
<text text-anchor="middle" x="174" y="-82.1" font-family="Arial" font-size="8.00">org.apache.felix.eventadmin(1.3.2)</text>
</g>
<!-- org_ops4j_pax_logging_pax_logging_api&#45;&gt;org_apache_felix_eventadmin -->
<g id="edge4" class="edge"><title>org_ops4j_pax_logging_pax_logging_api&#45;&gt;org_apache_felix_eventadmin</title>
<path fill="none" stroke="green" d="M168.16,-148.937C167.297,-140.807 167.048,-130.876 167.412,-121.705"/>
<polygon fill="green" stroke="green" points="170.923,-121.658 168.121,-111.441 163.94,-121.176 170.923,-121.658"/>
</g>
<!-- org_apache_felix_eventadmin&#45;&gt;org_ops4j_pax_logging_pax_logging_api -->
<g id="edge5" class="edge"><title>org_apache_felix_eventadmin&#45;&gt;org_ops4j_pax_logging_pax_logging_api</title>
<path fill="none" stroke="#3182bd" d="M179.879,-111.441C180.723,-119.625 180.954,-129.572 180.571,-138.719"/>
<polygon fill="#3182bd" stroke="#3182bd" points="177.062,-138.713 179.84,-148.937 184.045,-139.212 177.062,-138.713"/>
</g>
<!-- org_apache_felix_configadmin -->
<g id="node6" class="node"><title>org_apache_felix_configadmin</title>
<polygon fill="#9ecae1" stroke="black" points="0,-1 0,-37 166,-37 166,-1 0,-1"/>
<text text-anchor="middle" x="83" y="-26.1" font-family="Arial" font-size="8.00">Apache Felix Configuration Admin Service</text>
<polyline fill="none" stroke="black" points="0,-19 166,-19 "/>
<text text-anchor="middle" x="83" y="-8.1" font-family="Arial" font-size="8.00">org.apache.felix.configadmin(1.6.0)</text>
</g>
<!-- org_apache_felix_eventadmin&#45;&gt;org_apache_felix_configadmin -->
<g id="edge6" class="edge"><title>org_apache_felix_eventadmin&#45;&gt;org_apache_felix_configadmin</title>
<path fill="none" stroke="#3182bd" d="M152.434,-74.937C140.621,-65.5902 125.798,-53.8625 112.885,-43.6456"/>
<polygon fill="#3182bd" stroke="#3182bd" points="114.74,-40.6501 104.726,-37.19 110.397,-46.1397 114.74,-40.6501"/>
</g>
<!-- org_apache_felix_metatype -->
<g id="node7" class="node"><title>org_apache_felix_metatype</title>
<polygon fill="#9ecae1" stroke="black" points="198.5,-1 198.5,-37 329.5,-37 329.5,-1 198.5,-1"/>
<text text-anchor="middle" x="264" y="-26.1" font-family="Arial" font-size="8.00">Apache Felix Metatype Service</text>
<polyline fill="none" stroke="black" points="198.5,-19 329.5,-19 "/>
<text text-anchor="middle" x="264" y="-8.1" font-family="Arial" font-size="8.00">org.apache.felix.metatype(1.0.6)</text>
</g>
<!-- org_apache_felix_eventadmin&#45;&gt;org_apache_felix_metatype -->
<g id="edge7" class="edge"><title>org_apache_felix_eventadmin&#45;&gt;org_apache_felix_metatype</title>
<path fill="none" stroke="#3182bd" d="M195.329,-74.937C207.012,-65.5902 221.672,-53.8625 234.443,-43.6456"/>
<polygon fill="#3182bd" stroke="#3182bd" points="236.89,-46.1701 242.512,-37.19 232.517,-40.704 236.89,-46.1701"/>
</g>
<!-- org_apache_felix_configadmin&#45;&gt;org_ops4j_pax_logging_pax_logging_api -->
<g id="edge8" class="edge"><title>org_apache_felix_configadmin&#45;&gt;org_ops4j_pax_logging_pax_logging_api</title>
<path fill="none" stroke="#9ecae1" d="M81.2408,-37.3142C80.11,-56.9083 80.9296,-89.0738 95,-112 102.837,-124.77 114.957,-135.244 127.37,-143.456"/>
<polygon fill="#9ecae1" stroke="#9ecae1" points="125.617,-146.487 135.961,-148.779 129.304,-140.537 125.617,-146.487"/>
</g>
<!-- org_apache_felix_metatype&#45;&gt;org_ops4j_pax_logging_pax_logging_api -->
<g id="edge9" class="edge"><title>org_apache_felix_metatype&#45;&gt;org_ops4j_pax_logging_pax_logging_api</title>
<path fill="none" stroke="#9ecae1" d="M265.986,-37.2982C267.366,-56.8776 266.929,-89.0296 253,-112 245.231,-124.812 233.131,-135.298 220.716,-143.508"/>
<polygon fill="#9ecae1" stroke="#9ecae1" points="218.781,-140.59 212.12,-148.829 222.465,-146.542 218.781,-140.59"/>
</g>
</g>
</svg>
